<svg id="visual" viewBox="0 0 900 600" width="900" height="600" xmlns="http://www.w3.org/2000/svg" xmlns:xlink="http://www.w3.org/1999/xlink" version="1.1"><path d="M0 133L21.5 129.7C43 126.3 86 119.7 128.8 122C171.7 124.3 214.3 135.7 257.2 149C300 162.3 343 177.7 385.8 173C428.7 168.3 471.3 143.7 514.2 135.3C557 127 600 135 642.8 146.7C685.7 158.3 728.3 173.7 771.2 171.5C814 169.3 857 149.7 878.5 139.8L900 130L900 0L878.5 0C857 0 814 0 771.2 0C728.3 0 685.7 0 642.8 0C600 0 557 0 514.2 0C471.3 0 428.7 0 385.8 0C343 0 300 0 257.2 0C214.3 0 171.7 0 128.8 0C86 0 43 0 21.5 0L0 0Z" fill="#fcaf3c"></path><path d="M0 86L21.5 93.8C43 101.7 86 117.3 128.8 115.7C171.7 114 214.3 95 257.2 96C300 97 343 118 385.8 116.7C428.7 115.3 471.3 91.7 514.2 91.7C557 91.7 600 115.3 642.8 126.5C685.7 137.7 728.3 136.3 771.2 126.2C814 116 857 97 878.5 87.5L900 78L900 0L878.5 0C857 0 814 0 771.2 0C728.3 0 685.7 0 642.8 0C600 0 557 0 514.2 0C471.3 0 428.7 0 385.8 0C343 0 300 0 257.2 0C214.3 0 171.7 0 128.8 0C86 0 43 0 21.5 0L0 0Z" fill="#e4a235"></path><path d="M0 52L21.5 56C43 60 86 68 128.8 67.2C171.7 66.3 214.3 56.7 257.2 53.2C300 49.7 343 52.3 385.8 49.8C428.7 47.3 471.3 39.7 514.2 38.2C557 36.7 600 41.3 642.8 46.8C685.7 52.3 728.3 58.7 771.2 57.8C814 57 857 49 878.5 45L900 41L900 0L878.5 0C857 0 814 0 771.2 0C728.3 0 685.7 0 642.8 0C600 0 557 0 514.2 0C471.3 0 428.7 0 385.8 0C343 0 300 0 257.2 0C214.3 0 171.7 0 128.8 0C86 0 43 0 21.5 0L0 0Z" fill="#cd942e"></path></svg>