<svg id="visual" viewBox="0 0 900 600" width="900" height="600" xmlns="http://www.w3.org/2000/svg" xmlns:xlink="http://www.w3.org/1999/xlink" version="1.1"><path d="M0 465L21.5 468.3C43 471.7 86 478.3 128.8 476C171.7 473.7 214.3 462.3 257.2 449C300 435.7 343 420.3 385.8 425C428.7 429.7 471.3 454.3 514.2 462.7C557 471 600 463 642.8 451.3C685.7 439.7 728.3 424.3 771.2 426.5C814 428.7 857 448.3 878.5 458.2L900 468L900 601L878.5 601C857 601 814 601 771.2 601C728.3 601 685.7 601 642.8 601C600 601 557 601 514.2 601C471.3 601 428.7 601 385.8 601C343 601 300 601 257.2 601C214.3 601 171.7 601 128.8 601C86 601 43 601 21.5 601L0 601Z" fill="#fcaf3c"></path><path d="M0 512L21.5 504.2C43 496.3 86 480.7 128.8 482.3C171.7 484 214.3 503 257.2 502.2C300 501.3 343 480.7 385.8 482C428.7 483.3 471.3 506.7 514.2 506.5C557 506.3 600 482.7 642.8 471.5C685.7 460.3 728.3 461.7 771.2 471.8C814 482 857 501 878.5 510.5L900 520L900 601L878.5 601C857 601 814 601 771.2 601C728.3 601 685.7 601 642.8 601C600 601 557 601 514.2 601C471.3 601 428.7 601 385.8 601C343 601 300 601 257.2 601C214.3 601 171.7 601 128.8 601C86 601 43 601 21.5 601L0 601Z" fill="#e4a235"></path><path d="M0 546L21.5 542C43 538 86 530 128.8 530.8C171.7 531.7 214.3 541.3 257.2 544.8C300 548.3 343 545.7 385.8 548.2C428.7 550.7 471.3 558.3 514.2 559.8C557 561.3 600 556.7 642.8 551.2C685.7 545.7 728.3 539.3 771.2 540.2C814 541 857 549 878.5 553L900 557L900 601L878.5 601C857 601 814 601 771.2 601C728.3 601 685.7 601 642.8 601C600 601 557 601 514.2 601C471.3 601 428.7 601 385.8 601C343 601 300 601 257.2 601C214.3 601 171.7 601 128.8 601C86 601 43 601 21.5 601L0 601Z" fill="#cd942e"></path></svg>