<?xml version="1.0" encoding="UTF-8" ?>
<!DOCTYPE svg PUBLIC "-//W3C//DTD SVG 1.1//EN" "http://www.w3.org/Graphics/SVG/1.1/DTD/svg11.dtd">
<svg width="930pt" height="180pt" viewBox="0 0 930 180" version="1.1" xmlns="http://www.w3.org/2000/svg">
<g id="#ffffffff">
<path fill="#ffffff" opacity="1.00" d=" M 849.08 9.95 C 848.99 7.22 850.99 4.13 853.92 4.05 C 859.99 3.93 866.06 4.01 872.13 4.01 C 875.38 3.61 877.93 6.80 877.88 9.84 C 877.91 17.10 878.83 25.13 874.44 31.43 C 871.66 35.26 869.38 39.56 865.99 42.87 C 862.87 42.86 858.87 43.98 856.33 42.03 C 856.37 38.43 858.63 35.31 859.90 32.05 C 857.60 32.03 855.29 32.22 853.02 31.85 C 850.58 31.15 849.03 28.56 849.08 26.09 C 849.03 20.71 849.03 15.33 849.08 9.95 Z" />
<path fill="#ffffff" opacity="1.00" d=" M 52.40 22.38 C 53.88 21.84 55.48 22.04 57.02 21.98 C 91.36 22.03 125.71 21.97 160.05 22.01 C 168.03 22.07 176.54 24.98 181.28 31.74 C 186.24 38.19 186.57 47.97 181.46 54.43 C 176.42 60.87 168.46 64.20 160.60 65.63 C 174.05 77.12 187.49 88.63 200.90 100.17 C 202.52 100.87 202.13 103.40 200.18 102.93 C 185.48 103.11 170.77 102.93 156.06 103.02 C 154.37 102.92 152.32 103.38 151.10 101.88 C 136.39 88.64 121.70 75.40 107.00 62.16 C 107.00 58.71 106.93 55.27 107.14 51.83 C 114.06 51.10 121.06 52.04 127.98 51.28 C 132.20 50.75 137.64 47.96 136.91 42.91 C 136.29 38.26 131.01 36.50 126.98 36.15 C 118.05 35.94 109.11 36.12 100.18 36.07 C 100.20 57.38 100.18 78.70 100.19 100.01 C 100.39 101.44 99.99 103.37 98.09 102.96 C 84.40 103.07 70.71 102.95 57.02 103.02 C 55.51 102.89 53.82 103.29 52.43 102.56 C 51.82 101.12 52.14 99.49 52.04 97.98 C 52.07 74.33 52.07 50.68 52.04 27.03 C 52.09 25.48 51.90 23.88 52.40 22.38 Z" />
<path fill="#ffffff" opacity="1.00" d=" M 230.49 22.77 C 233.63 22.15 236.84 21.99 240.03 21.99 C 260.71 22.01 281.39 21.99 302.08 22.01 C 309.17 22.00 316.38 23.72 322.37 27.61 C 330.96 33.16 336.87 42.47 338.71 52.50 C 340.34 61.46 339.94 70.96 336.60 79.50 C 332.79 89.00 325.16 97.16 315.46 100.69 C 311.17 102.29 306.58 102.97 302.01 102.99 C 281.34 103.01 260.67 102.99 240.00 103.01 C 235.26 103.05 230.47 102.53 225.98 100.94 C 215.04 97.19 206.60 87.68 203.12 76.78 C 200.31 67.43 200.36 57.23 203.14 47.88 C 206.90 35.44 217.53 25.05 230.49 22.77 M 259.48 36.60 C 256.15 37.41 253.46 40.10 252.54 43.38 C 251.03 48.76 251.38 54.42 251.31 59.95 C 251.40 66.79 250.91 73.78 252.74 80.46 C 253.90 84.76 257.49 88.52 262.10 88.83 C 267.20 89.08 272.36 89.19 277.45 88.72 C 282.46 88.14 286.12 83.79 287.10 79.05 C 288.74 71.49 288.11 63.68 288.24 56.00 C 288.04 50.97 288.38 45.55 285.88 41.00 C 283.48 36.96 278.37 35.91 274.02 36.05 C 269.18 36.25 264.25 35.57 259.48 36.60 Z" />
<path fill="#ffffff" opacity="1.00" d=" M 383.59 22.73 C 388.31 21.80 393.15 22.02 397.93 22.00 C 422.29 21.99 446.64 22.02 470.99 21.98 C 472.67 22.30 475.26 21.28 476.31 22.94 C 476.57 26.63 476.45 30.35 476.40 34.05 C 476.85 36.24 474.45 35.99 473.06 36.06 C 454.68 36.10 436.30 36.01 417.92 36.09 C 413.85 36.13 409.32 37.77 407.45 41.65 C 405.38 46.10 405.58 51.18 405.50 55.98 C 405.65 63.04 405.06 70.16 406.21 77.17 C 406.82 81.02 408.48 85.06 411.96 87.16 C 414.63 88.88 417.91 89.00 420.99 89.01 C 437.34 88.98 453.69 89.02 470.04 88.99 C 472.01 89.01 474.02 88.86 475.98 89.28 C 476.80 93.61 476.63 98.33 476.07 102.72 C 473.73 103.16 471.34 102.98 468.98 103.01 C 445.66 102.99 422.34 103.01 399.01 103.00 C 393.32 102.96 387.52 103.32 381.95 101.85 C 370.28 99.04 360.77 89.72 356.61 78.61 C 353.26 69.19 353.12 58.72 355.66 49.08 C 359.13 36.04 370.11 25.01 383.59 22.73 Z" />
<path fill="#ffffff" opacity="1.00" d=" M 483.13 22.22 C 497.38 21.68 511.70 22.18 525.98 21.98 C 527.54 22.17 530.75 21.34 530.34 23.97 C 530.40 49.65 530.40 75.34 530.34 101.02 C 530.80 103.20 528.42 102.98 527.02 103.01 C 512.65 102.94 498.28 103.10 483.92 102.93 C 481.65 103.12 482.49 100.38 482.29 99.03 C 482.44 73.54 482.08 48.02 482.47 22.54 L 483.13 22.22 Z" />
<path fill="#ffffff" opacity="1.00" d=" M 537.49 51.59 C 555.23 41.63 573.00 31.62 590.94 22.02 C 600.96 21.96 610.99 22.03 621.02 21.99 C 622.38 21.84 623.73 22.13 624.48 23.39 C 608.04 32.78 591.42 41.86 574.91 51.14 C 592.20 66.19 609.48 81.27 626.77 96.32 C 628.64 98.17 631.15 99.52 632.36 101.93 C 631.45 103.44 629.45 102.85 628.01 103.02 C 613.30 102.96 598.58 103.04 583.87 102.98 C 582.51 103.20 581.59 102.07 580.66 101.33 C 566.21 88.24 551.68 75.25 537.24 62.17 C 537.39 58.65 536.92 55.07 537.49 51.59 Z" />
<path fill="#ffffff" opacity="1.00" d=" M 636.44 22.36 C 642.58 21.59 648.81 22.18 655.00 22.00 C 664.64 22.17 674.33 21.67 683.96 22.25 C 684.07 22.68 684.29 23.54 684.41 23.97 C 684.46 49.66 684.46 75.35 684.41 101.04 C 684.79 103.70 681.55 102.81 679.98 103.02 C 665.47 102.74 650.90 103.50 636.42 102.63 C 636.35 75.87 636.32 49.11 636.44 22.36 Z" />
<path fill="#ffffff" opacity="1.00" d=" M 692.65 23.98 C 692.20 21.35 695.43 22.18 697.00 21.98 C 705.14 22.46 713.65 20.71 721.46 23.78 C 754.38 34.71 787.32 45.59 820.24 56.52 C 820.37 45.18 820.00 33.82 820.42 22.50 C 825.80 21.37 831.46 22.31 836.95 21.98 C 838.59 22.07 841.88 21.44 841.48 24.10 C 841.54 49.40 841.48 74.71 841.51 100.02 C 841.44 101.08 841.71 103.02 840.06 102.90 C 833.71 103.15 827.35 102.92 821.00 103.01 C 817.95 103.11 814.98 102.35 812.12 101.38 C 779.37 90.47 746.63 79.55 713.88 68.64 C 713.84 79.46 713.95 90.27 713.83 101.09 C 714.19 103.39 711.42 102.95 709.99 103.01 C 704.31 102.82 698.58 103.38 692.93 102.70 C 692.21 91.84 692.83 80.87 692.62 69.96 C 692.64 54.64 692.58 39.31 692.65 23.98 Z" />
<path fill="#ffffff" opacity="1.00" d=" M 365.93 116.98 C 371.16 112.85 378.38 113.72 384.51 114.88 C 386.14 115.00 388.21 116.06 388.15 117.95 C 388.40 119.69 387.01 120.92 386.09 122.18 C 381.56 121.66 376.86 120.07 372.36 121.51 C 368.72 122.93 369.43 127.33 369.44 130.44 C 373.58 131.58 377.91 130.67 382.14 131.08 C 384.72 132.57 384.23 136.35 382.10 138.03 C 378.02 138.42 373.46 137.03 369.70 138.82 C 369.17 148.20 369.24 157.74 369.68 167.13 C 373.24 169.23 377.79 167.34 381.74 167.53 C 384.35 169.37 383.79 173.24 382.05 175.49 C 373.00 175.11 363.91 174.52 354.87 175.47 C 354.05 173.14 353.87 170.65 354.85 168.34 C 357.26 168.43 360.33 169.23 362.04 166.98 C 362.58 160.34 362.11 153.63 362.27 146.96 C 362.11 143.95 362.89 140.69 361.23 137.97 C 359.04 137.63 355.54 139.09 354.44 136.49 C 353.48 134.70 354.26 132.76 354.95 131.04 C 357.40 130.96 359.98 131.34 362.24 130.16 C 362.09 125.58 362.10 120.21 365.93 116.98 Z" />
<path fill="#ffffff" opacity="1.00" d=" M 406.49 116.53 C 412.40 112.63 420.09 113.75 426.55 115.46 C 429.35 116.96 427.95 120.51 426.09 122.18 C 421.56 121.66 416.87 120.08 412.37 121.50 C 408.71 122.94 409.40 127.38 409.48 130.51 C 413.63 131.50 417.93 130.70 422.15 131.08 C 424.72 132.59 424.24 136.35 422.10 138.03 C 418.02 138.41 413.47 137.04 409.71 138.81 C 409.02 142.82 409.56 146.94 409.40 151.00 C 409.56 156.37 409.04 161.79 409.69 167.13 C 413.24 169.23 417.81 167.34 421.75 167.53 C 424.61 169.31 424.15 175.96 420.08 175.49 C 411.69 174.88 403.23 174.70 394.83 175.45 C 394.07 173.12 393.87 170.64 394.85 168.34 C 397.28 168.47 400.16 169.15 402.03 167.09 C 402.58 160.42 402.11 153.69 402.27 146.99 C 402.11 143.97 402.89 140.70 401.23 137.97 C 399.21 137.88 397.08 138.35 395.16 137.62 C 393.44 135.77 393.95 133.11 394.94 131.04 C 397.39 130.97 399.95 131.31 402.23 130.20 C 402.04 125.40 402.18 119.62 406.49 116.53 Z" />
<path fill="#ffffff" opacity="1.00" d=" M 281.14 132.08 C 286.89 129.08 294.07 129.26 299.80 132.25 C 300.99 128.44 305.81 130.15 308.57 130.91 C 307.77 135.95 306.79 141.08 308.32 146.12 C 309.64 149.87 304.67 150.30 302.16 150.01 C 301.76 149.66 300.95 148.94 300.54 148.58 C 299.94 145.30 299.81 141.43 297.10 139.08 C 293.01 136.09 286.46 135.99 282.94 139.94 C 279.49 143.72 278.95 149.14 279.13 154.03 C 279.16 158.74 280.51 163.82 284.24 166.97 C 287.96 169.97 293.44 169.47 297.45 167.31 C 300.49 165.68 301.61 161.05 305.77 161.85 C 307.16 163.01 309.57 164.35 308.54 166.54 C 302.42 178.70 282.13 179.60 275.26 167.74 C 271.85 161.84 271.37 154.68 272.05 148.04 C 272.64 141.80 275.42 135.22 281.14 132.08 Z" />
<path fill="#ffffff" opacity="1.00" d=" M 327.39 130.13 C 332.72 129.41 338.51 130.78 342.47 134.56 C 347.52 139.20 349.68 146.27 349.61 152.98 C 349.71 159.51 347.67 166.30 342.99 171.00 C 336.34 177.62 324.41 177.77 317.64 171.28 C 314.12 167.78 311.90 163.06 311.24 158.15 C 310.11 150.62 311.25 142.28 316.23 136.26 C 318.92 132.78 323.11 130.79 327.39 130.13 M 326.45 137.54 C 321.70 139.16 318.98 144.06 318.35 148.80 C 317.46 154.63 318.18 161.26 322.32 165.78 C 326.45 170.32 334.47 170.08 338.38 165.36 C 343.29 159.33 343.60 150.32 340.34 143.45 C 337.96 138.37 331.80 135.53 326.45 137.54 Z" />
<path fill="#ffffff" opacity="1.00" d=" M 447.93 130.54 C 454.00 128.75 461.00 131.03 464.79 136.12 C 469.31 141.63 470.79 149.00 470.38 155.99 C 460.66 156.05 450.95 155.93 441.24 156.05 C 441.54 159.34 442.49 162.71 444.83 165.16 C 448.83 170.00 456.61 170.20 461.46 166.53 C 463.02 165.41 464.31 163.91 466.02 163.00 C 468.99 162.28 471.91 166.18 469.80 168.69 C 464.55 174.92 455.47 177.67 447.68 175.11 C 441.56 173.34 437.24 167.75 435.41 161.85 C 433.13 154.03 433.81 145.13 438.16 138.13 C 440.39 134.57 443.78 131.59 447.93 130.54 M 445.48 139.53 C 442.72 141.89 441.75 145.51 441.20 148.95 C 448.61 149.05 456.01 148.99 463.42 148.98 C 462.85 145.61 461.80 142.12 459.17 139.77 C 455.60 136.09 449.19 136.03 445.48 139.53 Z" />
<path fill="#ffffff" opacity="1.00" d=" M 482.41 133.32 C 488.25 128.57 497.51 128.89 502.95 134.11 C 508.80 139.68 510.89 148.13 510.38 155.99 C 500.66 156.04 490.95 155.94 481.24 156.04 C 481.52 159.57 482.68 163.14 485.29 165.65 C 489.76 170.41 497.92 169.98 502.54 165.67 C 504.12 164.47 505.59 162.37 507.86 163.03 C 509.67 163.96 511.24 165.93 510.22 168.05 C 503.98 176.58 490.31 178.88 482.00 172.06 C 475.94 166.95 473.65 158.61 474.22 150.92 C 474.60 144.34 477.19 137.55 482.41 133.32 M 484.20 140.91 C 482.27 143.15 481.74 146.13 481.20 148.94 C 488.61 149.06 496.01 148.99 503.42 148.98 C 502.84 145.13 501.37 141.16 498.06 138.84 C 493.88 135.61 487.29 136.67 484.20 140.91 Z" />
<path fill="#ffffff" opacity="1.00" d=" M 564.10 132.10 C 569.86 129.09 577.05 129.25 582.79 132.24 C 583.48 129.32 586.72 129.89 588.97 130.10 C 590.21 130.38 592.28 131.14 591.48 132.87 C 589.74 137.81 590.70 142.95 591.53 147.93 C 590.47 150.34 587.33 149.98 585.17 150.03 C 584.76 149.66 583.94 148.92 583.54 148.56 C 582.94 145.27 582.80 141.38 580.05 139.05 C 575.96 136.09 569.44 136.00 565.93 139.95 C 562.26 144.01 561.90 149.84 562.17 155.04 C 562.34 159.60 563.92 164.48 567.70 167.32 C 571.27 169.83 576.14 169.39 579.92 167.60 C 583.36 166.17 584.38 161.04 588.77 161.85 C 590.18 163.01 592.60 164.41 591.52 166.61 C 585.33 178.74 565.02 179.58 558.21 167.66 C 554.84 161.75 554.36 154.60 555.06 147.96 C 555.66 141.76 558.43 135.24 564.10 132.10 Z" />
<path fill="#ffffff" opacity="1.00" d=" M 610.40 130.13 C 615.74 129.41 621.54 130.80 625.50 134.59 C 630.81 139.50 632.88 147.03 632.59 154.08 C 632.49 160.44 630.26 166.98 625.56 171.41 C 619.03 177.46 607.95 177.63 601.22 171.82 C 597.33 168.29 594.92 163.27 594.23 158.09 C 593.11 150.56 594.27 142.24 599.26 136.23 C 601.94 132.76 606.13 130.79 610.40 130.13 M 609.46 137.54 C 604.70 139.15 601.97 144.06 601.35 148.81 C 600.43 154.83 601.25 161.79 605.79 166.26 C 610.23 170.50 618.19 169.81 621.81 164.84 C 626.36 158.64 626.58 149.71 623.08 142.98 C 620.61 138.15 614.60 135.64 609.46 137.54 Z" />
<path fill="#ffffff" opacity="1.00" d=" M 648.29 171.92 C 646.98 167.55 651.66 164.28 655.64 164.88 C 658.37 166.11 661.29 168.63 660.09 172.00 C 658.46 177.28 649.77 177.35 648.29 171.92 Z" />
</g>
</svg>
