<?xml version="1.0" encoding="UTF-8" ?>
<!DOCTYPE svg PUBLIC "-//W3C//DTD SVG 1.1//EN" "http://www.w3.org/Graphics/SVG/1.1/DTD/svg11.dtd">
<svg width="1021pt" height="281pt" viewBox="0 0 1021 281" version="1.1" xmlns="http://www.w3.org/2000/svg">
<g id="#ffffffff">
<path fill="#ffffff" opacity="1.00" d=" M 70.76 0.00 L 950.05 0.00 C 967.47 0.96 984.68 7.77 997.36 19.89 C 1011.63 32.84 1019.95 51.63 1021.00 70.78 L 1021.00 210.02 C 1020.04 227.65 1013.08 245.07 1000.71 257.78 C 987.79 271.80 969.20 279.94 950.27 281.00 L 70.96 281.00 C 53.32 280.04 35.90 273.05 23.16 260.67 C 9.18 247.74 1.06 229.17 0.00 210.24 L 0.00 73.20 C 0.27 52.94 9.06 32.85 24.24 19.34 C 36.79 7.58 53.68 1.02 70.76 0.00 M 63.63 4.77 C 46.33 7.29 30.17 16.64 19.31 30.33 C 9.45 42.57 3.97 58.23 4.01 73.96 C 4.00 118.33 4.00 162.70 4.01 207.07 C 4.00 221.06 8.30 235.02 16.24 246.54 C 25.57 260.21 39.88 270.39 55.89 274.62 C 63.09 276.62 70.61 277.14 78.05 277.00 C 364.38 276.99 650.71 277.00 937.03 277.00 C 944.07 276.96 951.16 277.29 958.14 276.11 C 974.21 273.59 989.25 265.17 999.87 252.85 C 1010.87 240.30 1017.05 223.69 1016.99 207.01 C 1017.00 162.69 1017.00 118.37 1016.99 74.05 C 1017.04 58.55 1011.76 43.11 1002.17 30.94 C 991.64 17.37 975.96 7.92 959.03 5.05 C 951.76 3.70 944.35 4.04 937.00 4.00 C 652.02 4.00 367.04 4.00 82.06 4.00 C 75.91 4.00 69.73 3.83 63.63 4.77 Z" />
<path fill="#ffffff" opacity="1.00" d=" M 937.65 49.72 C 937.92 47.00 939.97 43.99 942.95 44.04 C 949.98 43.97 957.03 43.97 964.07 44.04 C 967.50 44.05 969.58 47.85 969.41 50.96 C 969.26 57.84 970.29 65.31 966.68 71.54 C 964.19 75.70 961.20 79.52 958.42 83.48 C 956.29 86.64 952.06 85.82 948.82 85.81 C 947.60 85.63 945.45 85.88 945.57 84.05 C 945.64 80.29 948.00 77.02 949.43 73.64 C 946.27 73.32 942.38 74.66 939.85 72.15 C 938.03 70.70 937.49 68.29 937.58 66.07 C 937.64 60.62 937.49 55.17 937.65 49.72 Z" />
<path fill="#ffffff" opacity="1.00" d=" M 74.02 62.83 C 77.32 62.47 80.65 62.60 83.97 62.60 C 120.00 62.59 156.03 62.60 192.07 62.59 C 200.37 62.81 209.16 65.81 214.25 72.71 C 219.41 79.08 220.20 88.67 215.72 95.61 C 210.49 103.42 201.19 107.49 192.17 108.94 C 206.55 120.85 220.86 132.85 235.19 144.81 C 236.30 145.54 236.69 146.81 237.14 147.99 C 235.81 148.39 234.44 148.72 233.05 148.65 C 217.03 148.62 201.01 148.66 184.99 148.64 C 182.91 148.85 181.27 147.41 179.82 146.14 C 164.36 132.59 148.81 119.14 133.34 105.59 C 133.37 101.90 133.30 98.21 133.48 94.52 C 139.62 93.77 145.83 94.33 152.00 94.18 C 156.14 94.37 160.45 93.31 163.74 90.72 C 165.30 89.01 166.65 86.45 165.66 84.12 C 164.49 80.02 159.85 78.55 156.09 77.92 C 146.20 77.71 136.30 77.92 126.41 77.82 C 126.34 101.25 126.52 124.67 126.31 148.10 C 123.61 148.92 120.77 148.61 118.00 148.64 C 104.66 148.64 91.33 148.62 78.00 148.66 C 76.65 148.68 75.32 148.49 74.00 148.23 C 74.01 119.77 73.97 91.30 74.02 62.83 Z" />
<path fill="#ffffff" opacity="1.00" d=" M 266.55 63.63 C 269.32 63.08 272.13 62.66 274.96 62.59 C 298.98 62.59 323.01 62.61 347.03 62.59 C 357.27 62.76 367.70 66.57 374.75 74.20 C 384.50 83.74 387.85 98.23 386.31 111.46 C 385.25 122.76 379.52 133.58 370.51 140.53 C 363.59 146.00 354.73 148.50 346.00 148.64 C 323.00 148.64 300.01 148.63 277.02 148.65 C 267.74 148.63 258.26 145.87 251.09 139.81 C 244.30 134.32 239.38 126.56 237.27 118.09 C 235.56 112.21 235.97 106.02 236.08 99.99 C 237.05 83.02 249.63 67.01 266.55 63.63 M 300.23 78.10 C 294.10 79.07 291.17 85.38 290.94 91.00 C 290.72 99.34 290.86 107.70 290.86 116.05 C 291.25 121.45 292.17 127.64 296.77 131.18 C 300.55 134.12 305.57 133.24 310.01 133.36 C 314.49 133.25 319.43 134.03 323.43 131.48 C 326.52 129.71 328.35 126.38 329.19 123.01 C 330.89 116.48 330.23 109.67 330.36 103.01 C 330.25 96.61 330.97 89.87 328.40 83.82 C 326.18 79.28 320.78 77.52 316.02 77.81 C 310.76 78.02 305.46 77.48 300.23 78.10 Z" />
<path fill="#ffffff" opacity="1.00" d=" M 412.86 73.84 C 419.82 66.46 430.02 62.81 440.02 62.59 C 470.02 62.59 500.01 62.62 530.01 62.58 C 531.31 62.56 532.59 62.71 533.86 63.03 C 533.81 67.78 533.83 72.54 533.85 77.30 C 531.94 77.73 529.99 77.91 528.04 77.86 C 508.68 77.80 489.32 77.86 469.96 77.83 C 465.59 77.90 460.64 79.80 458.84 84.11 C 456.63 89.77 456.97 95.99 456.83 101.96 C 456.96 109.62 456.38 117.52 458.80 124.91 C 460.30 129.74 465.01 133.28 470.08 133.32 C 488.40 133.41 506.73 133.33 525.06 133.36 C 527.98 133.43 530.98 133.04 533.84 133.85 C 533.83 138.62 533.83 143.39 533.84 148.17 C 531.28 148.88 528.61 148.62 526.00 148.64 C 497.66 148.63 469.32 148.64 440.99 148.64 C 431.13 148.43 421.14 145.01 414.01 138.04 C 406.64 131.34 401.96 121.85 401.03 111.94 C 399.29 98.41 402.73 83.48 412.86 73.84 Z" />
<path fill="#ffffff" opacity="1.00" d=" M 540.38 63.13 C 541.88 62.72 543.43 62.51 545.00 62.57 C 558.34 62.62 571.67 62.59 585.01 62.59 C 587.63 62.63 590.30 62.35 592.86 63.03 C 592.80 91.40 592.84 119.77 592.84 148.14 C 590.30 148.90 587.63 148.61 585.03 148.64 C 571.34 148.64 557.64 148.63 543.95 148.65 C 542.69 148.74 541.50 148.35 540.36 147.91 C 540.37 119.65 540.33 91.39 540.38 63.13 Z" />
<path fill="#ffffff" opacity="1.00" d=" M 657.40 63.41 C 658.51 62.77 659.72 62.50 661.02 62.58 C 671.00 62.60 680.99 62.61 690.98 62.58 C 692.36 62.54 693.70 62.77 695.01 63.26 C 694.46 64.56 693.69 65.80 692.34 66.36 C 675.38 75.58 658.40 84.75 641.41 93.91 C 658.43 108.11 675.30 122.49 692.27 136.75 C 696.11 140.25 700.56 143.14 703.91 147.15 C 702.88 148.23 701.54 148.88 700.04 148.66 C 684.03 148.63 668.01 148.63 652.00 148.65 C 650.45 148.75 648.86 148.36 647.73 147.26 C 631.84 133.40 615.99 119.49 600.06 105.69 C 599.96 102.05 600.04 98.41 599.94 94.77 C 601.00 93.87 602.12 93.04 603.37 92.41 C 621.40 82.78 639.38 73.06 657.40 63.41 Z" />
<path fill="#ffffff" opacity="1.00" d=" M 708.01 63.10 C 711.59 62.12 715.35 62.77 719.02 62.60 C 732.79 62.74 746.58 62.31 760.35 62.82 C 760.46 91.28 760.40 119.73 760.38 148.19 C 758.93 148.50 757.46 148.70 756.00 148.66 C 741.32 148.62 726.64 148.63 711.96 148.66 C 710.60 148.72 709.29 148.46 708.02 148.07 C 707.98 119.75 708.00 91.42 708.01 63.10 Z" />
<path fill="#ffffff" opacity="1.00" d=" M 769.15 66.00 C 769.15 64.82 769.03 62.42 770.88 62.66 C 777.56 62.49 784.26 62.67 790.95 62.58 C 794.06 62.42 797.11 63.20 800.04 64.19 C 835.89 75.89 871.77 87.51 907.60 99.25 C 907.64 87.59 907.48 75.93 907.67 64.28 C 907.99 63.87 908.62 63.07 908.93 62.67 C 916.27 62.61 923.65 62.37 930.98 62.83 C 931.02 91.30 930.99 119.77 930.99 148.23 C 924.39 149.16 917.66 148.38 911.02 148.65 C 906.89 148.94 902.82 148.13 898.93 146.85 C 863.51 135.36 828.02 124.09 792.64 112.50 C 792.67 124.30 792.57 136.10 792.69 147.89 C 790.64 149.06 788.22 148.55 785.98 148.65 C 780.78 148.51 775.57 148.88 770.39 148.48 C 768.95 147.88 769.19 146.25 769.15 144.99 C 769.17 118.66 769.18 92.33 769.15 66.00 Z" />
<path fill="#ffffff" opacity="1.00" d=" M 390.65 165.53 C 392.96 159.96 399.21 157.43 404.87 157.08 C 410.76 156.87 416.81 156.73 422.52 158.46 C 426.87 160.20 424.41 167.90 419.89 166.96 C 415.13 165.98 410.18 165.04 405.36 166.10 C 402.76 166.82 400.02 168.29 399.03 170.95 C 398.69 173.00 398.85 175.10 398.77 177.17 C 404.62 179.99 411.41 177.02 417.54 178.45 C 420.59 180.15 420.25 185.46 416.96 186.65 C 411.38 187.22 405.70 185.96 400.16 187.02 C 399.86 187.30 399.25 187.85 398.95 188.13 C 398.74 199.05 398.79 210.01 398.92 220.93 C 399.15 221.26 399.63 221.90 399.86 222.23 C 405.19 223.27 410.63 222.10 416.00 222.07 C 420.64 222.41 419.94 231.58 415.07 230.84 C 404.38 230.65 393.67 229.92 383.00 230.79 C 381.66 230.97 380.66 229.86 379.53 229.36 C 379.34 227.41 378.94 225.37 379.60 223.46 C 382.16 221.02 386.23 223.04 389.13 221.07 C 389.59 210.39 389.34 199.67 389.28 188.97 C 388.81 185.99 385.02 187.08 382.90 186.80 C 379.06 187.38 378.38 182.14 379.69 179.57 C 381.77 176.20 386.82 179.94 389.20 176.91 C 389.59 173.11 388.86 169.08 390.65 165.53 Z" />
<path fill="#ffffff" opacity="1.00" d=" M 441.70 163.59 C 445.44 158.02 452.79 156.76 459.03 156.98 C 463.55 156.92 468.13 157.13 472.48 158.45 C 476.85 160.14 474.46 167.84 469.95 166.97 C 463.84 165.79 456.64 164.14 451.19 168.11 C 448.10 170.10 448.92 174.05 448.77 177.16 C 454.62 180.01 461.43 177.01 467.56 178.46 C 470.58 180.18 470.24 185.44 466.96 186.65 C 461.00 187.63 454.29 184.95 448.80 188.01 C 448.94 198.98 448.69 209.96 448.92 220.93 C 449.15 221.25 449.61 221.90 449.84 222.22 C 455.17 223.27 460.62 222.10 466.00 222.07 C 469.40 222.23 469.46 226.72 468.53 229.12 C 467.45 231.23 464.95 230.85 463.00 230.84 C 452.68 230.42 442.34 230.11 432.02 230.78 C 428.73 229.96 428.83 226.00 429.64 223.40 C 432.24 221.07 436.24 223.01 439.13 221.07 C 439.59 210.39 439.34 199.67 439.28 188.98 C 438.82 186.01 435.05 187.07 432.94 186.80 C 429.09 187.42 428.37 182.17 429.68 179.59 C 431.74 176.19 436.79 179.92 439.19 176.93 C 439.49 172.43 438.88 167.49 441.70 163.59 Z" />
<path fill="#ffffff" opacity="1.00" d=" M 259.58 185.46 C 267.60 175.40 282.90 173.89 294.07 179.09 C 294.85 174.77 301.41 175.82 303.76 178.25 C 304.04 181.54 302.16 184.64 302.63 187.98 C 302.38 191.85 304.95 195.91 302.60 199.50 C 300.08 200.38 296.17 201.35 294.77 198.26 C 294.10 194.25 293.52 189.53 289.77 187.13 C 283.13 183.84 274.15 184.28 268.66 189.60 C 263.52 195.11 262.83 203.43 264.40 210.49 C 265.69 216.37 270.14 221.66 276.14 223.04 C 283.36 224.61 292.29 223.14 296.57 216.52 C 298.76 211.82 306.79 215.17 305.43 220.05 C 302.64 225.81 297.03 230.11 290.81 231.52 C 283.55 233.02 275.69 233.09 268.78 230.13 C 261.22 226.90 255.95 219.52 254.60 211.50 C 253.24 202.67 253.73 192.69 259.58 185.46 Z" />
<path fill="#ffffff" opacity="1.00" d=" M 336.57 176.74 C 343.99 175.53 352.09 176.37 358.45 180.66 C 374.27 191.55 373.77 219.20 357.03 228.97 C 345.66 235.14 329.33 233.60 321.09 222.96 C 314.82 215.03 313.79 203.89 316.61 194.41 C 319.22 185.37 327.19 178.08 336.57 176.74 M 337.40 185.77 C 333.40 186.77 329.86 189.42 327.82 193.02 C 323.84 200.17 323.97 209.59 328.39 216.51 C 334.34 225.77 349.82 226.10 356.13 217.08 C 361.32 209.80 361.40 199.14 356.29 191.80 C 352.20 185.89 344.11 183.82 337.40 185.77 Z" />
<path fill="#ffffff" opacity="1.00" d=" M 486.58 185.55 C 495.07 173.43 515.42 172.99 524.63 184.48 C 529.99 190.87 532.10 199.72 530.90 207.89 C 517.55 207.65 504.19 207.39 490.85 207.86 C 491.85 212.80 493.53 218.11 497.89 221.11 C 502.48 224.57 508.63 223.66 513.95 223.03 C 518.18 222.34 521.34 219.34 524.53 216.76 C 528.44 214.09 533.70 219.89 530.47 223.47 C 523.47 231.86 511.54 233.45 501.30 232.10 C 491.22 230.93 483.70 222.03 481.69 212.47 C 480.05 203.36 480.82 193.15 486.58 185.55 M 497.16 188.17 C 493.93 190.71 492.42 194.69 491.38 198.52 C 495.86 199.43 500.46 198.84 505.00 199.00 C 510.27 198.86 515.58 199.36 520.83 198.63 C 519.90 195.14 518.55 191.62 515.93 189.04 C 511.04 184.15 502.47 183.74 497.16 188.17 Z" />
<path fill="#ffffff" opacity="1.00" d=" M 557.74 177.77 C 565.50 175.16 574.71 175.67 581.50 180.54 C 589.82 186.70 593.45 197.89 591.98 207.89 C 578.62 207.65 565.23 207.39 551.87 207.86 C 552.90 214.07 555.98 220.80 562.41 222.92 C 566.71 224.11 571.29 223.60 575.63 222.88 C 579.39 222.05 582.34 219.50 585.15 217.03 C 588.08 214.56 592.83 217.51 592.48 221.17 C 591.87 224.23 589.03 225.95 586.74 227.70 C 580.83 231.96 573.22 232.53 566.17 232.52 C 559.04 232.41 551.81 229.23 547.69 223.28 C 541.97 215.93 541.13 206.02 542.57 197.11 C 544.19 188.79 549.57 180.77 557.74 177.77 M 558.16 188.17 C 555.03 190.78 553.38 194.68 552.42 198.55 C 556.57 199.37 560.83 198.88 565.03 199.00 C 570.62 198.90 576.24 199.26 581.82 198.72 C 580.83 193.53 577.86 188.27 572.75 186.25 C 568.01 184.07 562.20 184.97 558.16 188.17 Z" />
<path fill="#ffffff" opacity="1.00" d=" M 653.45 177.70 C 661.04 175.44 669.62 175.60 676.78 179.16 C 676.93 176.00 680.58 176.09 682.88 176.44 C 684.49 176.83 686.93 177.63 686.60 179.74 C 684.82 185.07 685.06 190.86 686.49 196.24 C 686.25 200.50 681.23 201.08 678.06 199.68 C 676.36 195.55 676.86 189.99 672.58 187.34 C 664.45 182.64 651.96 185.07 648.13 194.28 C 645.36 201.52 645.51 210.48 649.98 217.04 C 655.89 225.38 668.93 225.47 676.57 219.57 C 678.89 217.99 679.58 213.79 683.03 214.33 C 686.00 214.08 688.74 217.05 687.95 220.02 C 687.09 222.80 684.71 224.79 682.71 226.78 C 677.20 231.80 669.34 232.66 662.20 232.49 C 654.86 232.25 647.26 229.43 642.65 223.50 C 636.65 216.14 635.67 205.91 637.19 196.84 C 638.54 188.11 644.94 180.29 653.45 177.70 Z" />
<path fill="#ffffff" opacity="1.00" d=" M 719.52 176.67 C 728.03 175.38 737.56 176.81 743.99 182.97 C 755.10 193.69 755.39 213.57 744.95 224.84 C 738.39 231.83 727.97 233.66 718.86 231.93 C 710.01 230.62 702.47 223.89 699.59 215.51 C 697.62 210.53 697.87 205.09 698.11 199.86 C 698.97 188.48 708.01 178.09 719.52 176.67 M 723.28 185.13 C 718.01 185.60 712.95 188.43 710.40 193.16 C 705.89 201.32 706.64 212.75 713.47 219.44 C 719.38 224.67 729.07 225.10 735.41 220.43 C 743.51 214.21 744.59 201.81 739.85 193.24 C 736.71 187.38 729.70 184.46 723.28 185.13 Z" />
<path fill="#ffffff" opacity="1.00" d=" M 771.34 219.44 C 776.00 217.19 783.19 220.23 782.68 226.00 C 782.35 232.50 772.83 234.75 768.90 230.00 C 765.74 226.89 767.09 220.83 771.34 219.44 Z" />
</g>
<g id="#000000ff">
<path fill="#000000" opacity="1.00" d=" M 63.63 4.77 C 69.73 3.83 75.91 4.00 82.06 4.00 C 367.04 4.00 652.02 4.00 937.00 4.00 C 944.35 4.04 951.76 3.70 959.03 5.05 C 975.96 7.92 991.64 17.37 1002.17 30.94 C 1011.76 43.11 1017.04 58.55 1016.99 74.05 C 1017.00 118.37 1017.00 162.69 1016.99 207.01 C 1017.05 223.69 1010.87 240.30 999.87 252.85 C 989.25 265.17 974.21 273.59 958.14 276.11 C 951.16 277.29 944.07 276.96 937.03 277.00 C 650.71 277.00 364.38 276.99 78.05 277.00 C 70.61 277.14 63.09 276.62 55.89 274.62 C 39.88 270.39 25.57 260.21 16.24 246.54 C 8.30 235.02 4.00 221.06 4.01 207.07 C 4.00 162.70 4.00 118.33 4.01 73.96 C 3.97 58.23 9.45 42.57 19.31 30.33 C 30.17 16.64 46.33 7.29 63.63 4.77 M 937.65 49.72 C 937.49 55.17 937.64 60.62 937.58 66.07 C 937.49 68.29 938.03 70.70 939.85 72.15 C 942.38 74.66 946.27 73.32 949.43 73.64 C 948.00 77.02 945.64 80.29 945.57 84.05 C 945.45 85.88 947.60 85.63 948.82 85.81 C 952.06 85.82 956.29 86.64 958.42 83.48 C 961.20 79.52 964.19 75.70 966.68 71.54 C 970.29 65.31 969.26 57.84 969.41 50.96 C 969.58 47.85 967.50 44.05 964.07 44.04 C 957.03 43.97 949.98 43.97 942.95 44.04 C 939.97 43.99 937.92 47.00 937.65 49.72 M 74.02 62.83 C 73.97 91.30 74.01 119.77 74.00 148.23 C 75.32 148.49 76.65 148.68 78.00 148.66 C 91.33 148.62 104.66 148.64 118.00 148.64 C 120.77 148.61 123.61 148.92 126.31 148.10 C 126.52 124.67 126.34 101.25 126.41 77.82 C 136.30 77.92 146.20 77.71 156.09 77.92 C 159.85 78.55 164.49 80.02 165.66 84.12 C 166.65 86.45 165.30 89.01 163.74 90.72 C 160.45 93.31 156.14 94.37 152.00 94.18 C 145.83 94.33 139.62 93.77 133.48 94.52 C 133.30 98.21 133.37 101.90 133.34 105.59 C 148.81 119.14 164.36 132.59 179.82 146.14 C 181.27 147.41 182.91 148.85 184.99 148.64 C 201.01 148.66 217.03 148.62 233.05 148.65 C 234.44 148.72 235.81 148.39 237.14 147.99 C 236.69 146.81 236.30 145.54 235.19 144.81 C 220.86 132.85 206.55 120.85 192.17 108.94 C 201.19 107.49 210.49 103.42 215.72 95.61 C 220.20 88.67 219.41 79.08 214.25 72.71 C 209.16 65.81 200.37 62.81 192.07 62.59 C 156.03 62.60 120.00 62.59 83.97 62.60 C 80.65 62.60 77.32 62.47 74.02 62.83 M 266.55 63.63 C 249.63 67.01 237.05 83.02 236.08 99.99 C 235.97 106.02 235.56 112.21 237.27 118.09 C 239.38 126.56 244.30 134.32 251.09 139.81 C 258.26 145.87 267.74 148.63 277.02 148.65 C 300.01 148.63 323.00 148.64 346.00 148.64 C 354.73 148.50 363.59 146.00 370.51 140.53 C 379.52 133.58 385.25 122.76 386.31 111.46 C 387.85 98.23 384.50 83.74 374.75 74.20 C 367.70 66.57 357.27 62.76 347.03 62.59 C 323.01 62.61 298.98 62.59 274.96 62.59 C 272.13 62.66 269.32 63.08 266.55 63.63 M 412.86 73.84 C 402.73 83.48 399.29 98.41 401.03 111.94 C 401.96 121.85 406.64 131.34 414.01 138.04 C 421.14 145.01 431.13 148.43 440.99 148.64 C 469.32 148.64 497.66 148.63 526.00 148.64 C 528.61 148.62 531.28 148.88 533.84 148.17 C 533.83 143.39 533.83 138.62 533.84 133.85 C 530.98 133.04 527.98 133.43 525.06 133.36 C 506.73 133.33 488.40 133.41 470.08 133.32 C 465.01 133.28 460.30 129.74 458.80 124.91 C 456.38 117.52 456.96 109.62 456.83 101.96 C 456.97 95.99 456.63 89.77 458.84 84.11 C 460.64 79.80 465.59 77.90 469.96 77.83 C 489.32 77.86 508.68 77.80 528.04 77.86 C 529.99 77.91 531.94 77.73 533.85 77.30 C 533.83 72.54 533.81 67.78 533.86 63.03 C 532.59 62.71 531.31 62.56 530.01 62.58 C 500.01 62.62 470.02 62.59 440.02 62.59 C 430.02 62.81 419.82 66.46 412.86 73.84 M 540.38 63.13 C 540.33 91.39 540.37 119.65 540.36 147.91 C 541.50 148.35 542.69 148.74 543.95 148.65 C 557.64 148.63 571.34 148.64 585.03 148.64 C 587.63 148.61 590.30 148.90 592.84 148.14 C 592.84 119.77 592.80 91.40 592.86 63.03 C 590.30 62.35 587.63 62.63 585.01 62.59 C 571.67 62.59 558.34 62.62 545.00 62.57 C 543.43 62.51 541.88 62.72 540.38 63.13 M 657.40 63.41 C 639.38 73.06 621.40 82.78 603.37 92.41 C 602.12 93.04 601.00 93.87 599.94 94.77 C 600.04 98.41 599.96 102.05 600.06 105.69 C 615.99 119.49 631.84 133.40 647.73 147.26 C 648.86 148.36 650.45 148.75 652.00 148.65 C 668.01 148.63 684.03 148.63 700.04 148.66 C 701.54 148.88 702.88 148.23 703.91 147.15 C 700.56 143.14 696.11 140.25 692.27 136.75 C 675.30 122.49 658.43 108.11 641.41 93.91 C 658.40 84.75 675.38 75.58 692.34 66.36 C 693.69 65.80 694.46 64.56 695.01 63.26 C 693.70 62.77 692.36 62.54 690.98 62.58 C 680.99 62.61 671.00 62.60 661.02 62.58 C 659.72 62.50 658.51 62.77 657.40 63.41 M 708.01 63.10 C 708.00 91.42 707.98 119.75 708.02 148.07 C 709.29 148.46 710.60 148.72 711.96 148.66 C 726.64 148.63 741.32 148.62 756.00 148.66 C 757.46 148.70 758.93 148.50 760.38 148.19 C 760.40 119.73 760.46 91.28 760.35 62.82 C 746.58 62.31 732.79 62.74 719.02 62.60 C 715.35 62.77 711.59 62.12 708.01 63.10 M 769.15 66.00 C 769.18 92.33 769.17 118.66 769.15 144.99 C 769.19 146.25 768.95 147.88 770.39 148.48 C 775.57 148.88 780.78 148.51 785.98 148.65 C 788.22 148.55 790.64 149.06 792.69 147.89 C 792.57 136.10 792.67 124.30 792.64 112.50 C 828.02 124.09 863.51 135.36 898.93 146.85 C 902.82 148.13 906.89 148.94 911.02 148.65 C 917.66 148.38 924.39 149.16 930.99 148.23 C 930.99 119.77 931.02 91.30 930.98 62.83 C 923.65 62.37 916.27 62.61 908.93 62.67 C 908.62 63.07 907.99 63.87 907.67 64.28 C 907.48 75.93 907.64 87.59 907.60 99.25 C 871.77 87.51 835.89 75.89 800.04 64.19 C 797.11 63.20 794.06 62.42 790.95 62.58 C 784.26 62.67 777.56 62.49 770.88 62.66 C 769.03 62.42 769.15 64.82 769.15 66.00 M 390.65 165.53 C 388.86 169.08 389.59 173.11 389.20 176.91 C 386.82 179.94 381.77 176.20 379.69 179.57 C 378.38 182.14 379.06 187.38 382.90 186.80 C 385.02 187.08 388.81 185.99 389.28 188.97 C 389.34 199.67 389.59 210.39 389.13 221.07 C 386.23 223.04 382.16 221.02 379.60 223.46 C 378.94 225.37 379.34 227.41 379.53 229.36 C 380.66 229.86 381.66 230.97 383.00 230.79 C 393.67 229.92 404.38 230.65 415.07 230.84 C 419.94 231.58 420.64 222.41 416.00 222.07 C 410.63 222.10 405.19 223.27 399.86 222.23 C 399.63 221.90 399.15 221.26 398.92 220.93 C 398.79 210.01 398.74 199.05 398.95 188.13 C 399.25 187.85 399.86 187.30 400.16 187.02 C 405.70 185.96 411.38 187.22 416.96 186.65 C 420.25 185.46 420.59 180.15 417.54 178.45 C 411.41 177.02 404.62 179.99 398.77 177.17 C 398.85 175.10 398.69 173.00 399.03 170.95 C 400.02 168.29 402.76 166.82 405.36 166.10 C 410.18 165.04 415.13 165.98 419.89 166.96 C 424.41 167.90 426.87 160.20 422.52 158.46 C 416.81 156.73 410.76 156.87 404.87 157.08 C 399.21 157.43 392.96 159.96 390.65 165.53 M 441.70 163.59 C 438.88 167.49 439.49 172.43 439.19 176.93 C 436.79 179.92 431.74 176.19 429.68 179.59 C 428.37 182.17 429.09 187.42 432.94 186.80 C 435.05 187.07 438.82 186.01 439.28 188.98 C 439.34 199.67 439.59 210.39 439.13 221.07 C 436.24 223.01 432.24 221.07 429.64 223.40 C 428.83 226.00 428.73 229.96 432.02 230.78 C 442.34 230.11 452.68 230.42 463.00 230.84 C 464.95 230.85 467.45 231.23 468.53 229.12 C 469.46 226.72 469.40 222.23 466.00 222.07 C 460.62 222.10 455.17 223.27 449.84 222.22 C 449.61 221.90 449.15 221.25 448.92 220.93 C 448.69 209.96 448.94 198.98 448.80 188.01 C 454.29 184.95 461.00 187.63 466.96 186.65 C 470.24 185.44 470.58 180.18 467.56 178.46 C 461.43 177.01 454.62 180.01 448.77 177.16 C 448.92 174.05 448.10 170.10 451.19 168.11 C 456.64 164.14 463.84 165.79 469.95 166.97 C 474.46 167.84 476.85 160.14 472.48 158.45 C 468.13 157.13 463.55 156.92 459.03 156.98 C 452.79 156.76 445.44 158.02 441.70 163.59 M 259.58 185.46 C 253.73 192.69 253.24 202.67 254.60 211.50 C 255.95 219.52 261.22 226.90 268.78 230.13 C 275.69 233.09 283.55 233.02 290.81 231.52 C 297.03 230.11 302.64 225.81 305.43 220.05 C 306.79 215.17 298.76 211.82 296.57 216.52 C 292.29 223.14 283.36 224.61 276.14 223.04 C 270.14 221.66 265.69 216.37 264.40 210.49 C 262.83 203.43 263.52 195.11 268.66 189.60 C 274.15 184.28 283.13 183.84 289.77 187.13 C 293.52 189.53 294.10 194.25 294.77 198.26 C 296.17 201.35 300.08 200.38 302.60 199.50 C 304.95 195.91 302.38 191.85 302.63 187.98 C 302.16 184.64 304.04 181.54 303.76 178.25 C 301.41 175.82 294.85 174.77 294.07 179.09 C 282.90 173.89 267.60 175.40 259.58 185.46 M 336.57 176.74 C 327.19 178.08 319.22 185.37 316.61 194.41 C 313.79 203.89 314.82 215.03 321.09 222.96 C 329.33 233.60 345.66 235.14 357.03 228.97 C 373.77 219.20 374.27 191.55 358.45 180.66 C 352.09 176.37 343.99 175.53 336.57 176.74 M 486.58 185.55 C 480.82 193.15 480.05 203.36 481.69 212.47 C 483.70 222.03 491.22 230.93 501.30 232.10 C 511.54 233.45 523.47 231.86 530.47 223.47 C 533.70 219.89 528.44 214.09 524.53 216.76 C 521.34 219.34 518.18 222.34 513.95 223.03 C 508.63 223.66 502.48 224.57 497.89 221.11 C 493.53 218.11 491.85 212.80 490.85 207.86 C 504.19 207.39 517.55 207.65 530.90 207.89 C 532.10 199.72 529.99 190.87 524.63 184.48 C 515.42 172.99 495.07 173.43 486.58 185.55 M 557.74 177.77 C 549.57 180.77 544.19 188.79 542.57 197.11 C 541.13 206.02 541.97 215.93 547.69 223.28 C 551.81 229.23 559.04 232.41 566.17 232.52 C 573.22 232.53 580.83 231.96 586.74 227.70 C 589.03 225.95 591.87 224.23 592.48 221.17 C 592.83 217.51 588.08 214.56 585.15 217.03 C 582.34 219.50 579.39 222.05 575.63 222.88 C 571.29 223.60 566.71 224.11 562.41 222.92 C 555.98 220.80 552.90 214.07 551.87 207.86 C 565.23 207.39 578.62 207.65 591.98 207.89 C 593.45 197.89 589.82 186.70 581.50 180.54 C 574.71 175.67 565.50 175.16 557.74 177.77 M 653.45 177.70 C 644.94 180.29 638.54 188.11 637.19 196.84 C 635.67 205.91 636.65 216.14 642.65 223.50 C 647.26 229.43 654.86 232.25 662.20 232.49 C 669.34 232.66 677.20 231.80 682.71 226.78 C 684.71 224.79 687.09 222.80 687.95 220.02 C 688.74 217.05 686.00 214.08 683.03 214.33 C 679.58 213.79 678.89 217.99 676.57 219.57 C 668.93 225.47 655.89 225.38 649.98 217.04 C 645.51 210.48 645.36 201.52 648.13 194.28 C 651.96 185.07 664.45 182.64 672.58 187.34 C 676.86 189.99 676.36 195.55 678.06 199.68 C 681.23 201.08 686.25 200.50 686.49 196.24 C 685.06 190.86 684.82 185.07 686.60 179.74 C 686.93 177.63 684.49 176.83 682.88 176.44 C 680.58 176.09 676.93 176.00 676.78 179.16 C 669.62 175.60 661.04 175.44 653.45 177.70 M 719.52 176.67 C 708.01 178.09 698.97 188.48 698.11 199.86 C 697.87 205.09 697.62 210.53 699.59 215.51 C 702.47 223.89 710.01 230.62 718.86 231.93 C 727.97 233.66 738.39 231.83 744.95 224.84 C 755.39 213.57 755.10 193.69 743.99 182.97 C 737.56 176.81 728.03 175.38 719.52 176.67 M 771.34 219.44 C 767.09 220.83 765.74 226.89 768.90 230.00 C 772.83 234.75 782.35 232.50 782.68 226.00 C 783.19 220.23 776.00 217.19 771.34 219.44 Z" />
<path fill="#000000" opacity="1.00" d=" M 300.23 78.10 C 305.46 77.48 310.76 78.02 316.02 77.81 C 320.78 77.52 326.18 79.28 328.40 83.82 C 330.97 89.87 330.25 96.61 330.36 103.01 C 330.23 109.67 330.89 116.48 329.19 123.01 C 328.35 126.38 326.52 129.71 323.43 131.48 C 319.43 134.03 314.49 133.25 310.01 133.36 C 305.57 133.24 300.55 134.12 296.77 131.18 C 292.17 127.64 291.25 121.45 290.86 116.05 C 290.86 107.70 290.72 99.34 290.94 91.00 C 291.17 85.38 294.10 79.07 300.23 78.10 Z" />
<path fill="#000000" opacity="1.00" d=" M 337.40 185.77 C 344.11 183.82 352.20 185.89 356.29 191.80 C 361.40 199.14 361.32 209.80 356.13 217.08 C 349.82 226.10 334.34 225.77 328.39 216.51 C 323.97 209.59 323.84 200.17 327.82 193.02 C 329.86 189.42 333.40 186.77 337.40 185.77 Z" />
<path fill="#000000" opacity="1.00" d=" M 497.16 188.17 C 502.47 183.74 511.04 184.15 515.93 189.04 C 518.55 191.62 519.90 195.14 520.83 198.63 C 515.58 199.36 510.27 198.86 505.00 199.00 C 500.46 198.84 495.86 199.43 491.38 198.52 C 492.42 194.69 493.93 190.71 497.16 188.17 Z" />
<path fill="#000000" opacity="1.00" d=" M 558.16 188.17 C 562.20 184.97 568.01 184.07 572.75 186.25 C 577.86 188.27 580.83 193.53 581.82 198.72 C 576.24 199.26 570.62 198.90 565.03 199.00 C 560.83 198.88 556.57 199.37 552.42 198.55 C 553.38 194.68 555.03 190.78 558.16 188.17 Z" />
<path fill="#000000" opacity="1.00" d=" M 723.28 185.13 C 729.70 184.46 736.71 187.38 739.85 193.24 C 744.59 201.81 743.51 214.21 735.41 220.43 C 729.07 225.10 719.38 224.67 713.47 219.44 C 706.64 212.75 705.89 201.32 710.40 193.16 C 712.95 188.43 718.01 185.60 723.28 185.13 Z" />
</g>
</svg>
